<svg xmlns="http://www.w3.org/2000/svg" viewBox="0 0 99.9995 151.9736">
  <path fill="#CEDE54" d="M39.464 62.2905c-9.905 0-15.6627 7.0982-15.6627 15.525 0 8.699 5.7578 15.3915 15.6626 15.3915 9.901 0 15.658-6.6924 15.658-15.3916 0-8.4267-5.757-15.525-15.659-15.525z"/>
  <path fill="#466969" d="M54.0493 104.4492c-2.839 4.5313-7.5112 7.3994-12.6733 8.8262h1.086c4.0556 0 8.021-.415 11.8578-1.208v-7.6182h-.2705zM33.0396 41.145c7.8945 0 16.1918 2.9463 21.2802 8.9663V1.1963C50.4868.413 46.5215 0 42.4618 0H.695v64.9893C5.2954 51.274 17.2738 41.145 33.0396 41.145z"/>
  <path fill="#709294" d="M99.9995 56.6396c0-18.0507-8.3467-33.828-21.3213-44.1186v88.185c12.954-10.291 21.3213-26.0478 21.3213-44.0664z"/>
  <path fill="#466969" d="M.6948 90.3008v22.9746h24.0005C13.142 110.3076 4.457 101.4668.6948 90.3008zm2.859 32.9052c0 .4825-.175.8917-.5255 1.2276-.3506.339-.768.506-1.2514.506-.485 0-.903-.167-1.253-.506-.351-.336-.524-.745-.524-1.2275s.173-.897.524-1.246c.35-.349.768-.524 1.253-.524.483 0 .9.175 1.251.525.35.349.525.764.525 1.246zm-.601 6.4522v14.0762c0 .788-.3927 1.1787-1.176 1.1787-.7863 0-1.176-.39-1.176-1.178v-14.076c0-.776.3897-1.165 1.176-1.165.783 0 1.1756.389 1.1756 1.165zm16.3992 14.0762c0 .788-.395 1.1787-1.184 1.1787-.7793 0-1.169-.39-1.169-1.175v-9.373c0-.967-.3457-1.796-1.0366-2.484-.692-.688-1.5132-1.032-2.4678-1.032-.9653 0-1.7895.344-2.474 1.033-.687.689-1.03 1.518-1.03 2.484v9.373c0 .785-.3925 1.176-1.1757 1.176-.784 0-1.178-.39-1.178-1.178V129.66c0-.7765.393-1.165 1.177-1.165.783 0 1.175.3885 1.175 1.163 1.031-.7745 2.201-1.163 3.511-1.163 1.601 0 2.975.576 4.126 1.7206 1.15 1.147 1.723 2.526 1.723 4.142v9.378zm18.798 0c0 .788-.3912 1.1787-1.1764 1.1787-.6035 0-.973-.289-1.1132-.871-.0533-.226-.0752-.757-.0665-1.597-1.6 1.645-3.553 2.469-5.853 2.469-2.258 0-4.191-.8-5.797-2.403-1.609-1.603-2.413-3.541-2.413-5.811 0-2.263.804-4.192 2.413-5.799 1.607-1.6 3.539-2.406 5.798-2.406 2.301 0 4.253.821 5.855 2.456v-8.33c0-.79.391-1.184 1.175-1.184.785 0 1.176.394 1.176 1.181v21.118zm-2.352-7.0362c0-1.6035-.5734-2.9746-1.718-4.128-1.1474-1.1464-2.5263-1.7225-4.139-1.7225-1.6124 0-2.9932.576-4.1378 1.7226-1.1474 1.1533-1.7192 2.5244-1.7192 4.128 0 1.6113.5718 2.9902 1.7192 4.1376 1.1446 1.152 2.5254 1.725 4.1377 1.725 1.612 0 2.991-.573 4.139-1.726 1.144-1.148 1.718-2.527 1.718-4.138zm21.9027 7.0362c0 .788-.3906 1.1787-1.1758 1.1787-.601 0-.974-.289-1.115-.871-.054-.226-.075-.757-.063-1.597-1.603 1.645-3.554 2.469-5.858 2.469-2.255 0-4.189-.8-5.797-2.403-1.608-1.603-2.412-3.541-2.412-5.811 0-2.263.804-4.192 2.411-5.799 1.608-1.6 3.542-2.406 5.8-2.406 2.3 0 4.252.821 5.854 2.456v-8.33c0-.79.394-1.184 1.177-1.184.785 0 1.175.394 1.175 1.181v21.118zm-2.3526-7.0362c0-1.6035-.573-2.9746-1.716-4.128-1.146-1.1464-2.526-1.7225-4.14-1.7225-1.611 0-2.99.576-4.134 1.7226-1.148 1.1533-1.72 2.5244-1.72 4.128 0 1.6113.572 2.9902 1.721 4.1376 1.145 1.152 2.524 1.725 4.135 1.725 1.615 0 2.995-.573 4.141-1.726 1.144-1.148 1.717-2.527 1.717-4.138zm9.994-13.4922c0 .4825-.176.8917-.525 1.2276-.35.339-.77.506-1.253.506-.483 0-.903-.167-1.254-.506-.35-.336-.522-.745-.522-1.2275s.172-.897.523-1.246c.351-.349.771-.524 1.254-.524s.903.175 1.253.525c.35.349.526.764.526 1.246zm-.6 6.4522v14.0762c0 .788-.395 1.1787-1.177 1.1787-.784 0-1.175-.39-1.175-1.178v-14.076c0-.776.392-1.165 1.176-1.165.783 0 1.178.389 1.178 1.165zm17.201 0c0 .5918-.272.9648-.813 1.1162-.225.0547-.741.0733-1.539.0625.802 1.045 1.202 2.221 1.202 3.522 0 1.866-.728 3.389-2.181 4.573 2.222 1.379 3.332 3.379 3.332 5.993 0 1.94-.687 3.598-2.058 4.98-1.37 1.376-3.028 2.067-4.974 2.067-1.937 0-3.592-.692-4.968-2.073-1.377-1.382-2.065-3.042-2.065-4.985 0-.788.392-1.182 1.176-1.182.783 0 1.177.393 1.177 1.181 0 1.293.459 2.401 1.38 3.321.92.92 2.021 1.381 3.303 1.381 1.294 0 2.398-.462 3.321-1.382.919-.92 1.38-2.029 1.38-3.325 0-1.293-.461-2.399-1.377-3.321-.919-.921-2.021-1.385-3.31-1.385-1.602 0-2.974-.572-4.124-1.718-1.15-1.145-1.724-2.524-1.724-4.138 0-1.612.574-2.991 1.721-4.138 1.1495-1.145 2.5235-1.721 4.125-1.721h5.8595c.7726 0 1.16.388 1.16 1.165zm-3.504 4.6934c0-.965-.343-1.791-1.028-2.4746-.685-.6856-1.511-1.0293-2.475-1.0293-.966 0-1.792.3437-2.478 1.0293-.683.6835-1.025 1.5097-1.025 2.4746 0 .9668.342 1.791 1.026 2.4765.687.686 1.512 1.028 2.479 1.028.964 0 1.79-.342 2.476-1.027.685-.685 1.029-1.509 1.029-2.476zm21.45 2.3466c0 2.2705-.802 4.208-2.411 5.8116-1.608 1.6025-3.542 2.4033-5.797 2.4033-2.259 0-4.192-.8-5.798-2.403-1.608-1.603-2.412-3.541-2.412-5.811 0-2.263.804-4.192 2.412-5.799 1.606-1.6 3.538-2.406 5.798-2.406 2.255 0 4.189.806 5.797 2.406 1.609 1.607 2.411 3.535 2.411 5.799zm-2.351 0c0-1.6035-.574-2.9746-1.717-4.128-1.148-1.1464-2.527-1.7225-4.139-1.7225-1.615 0-2.995.576-4.139 1.7226-1.145 1.1533-1.718 2.5244-1.718 4.128 0 1.6113.572 2.9902 1.718 4.1376 1.145 1.152 2.525 1.725 4.14 1.725 1.612 0 2.991-.573 4.139-1.726 1.144-1.148 1.718-2.527 1.718-4.138z"/>
</svg>