<svg xmlns="http://www.w3.org/2000/svg" viewBox="0 77 128 128">
  <g fill="#c19f19">
    <path d="M34.084 123.4268c-.2276 3.0195-.7197 5.579-.5235 8.0742.3282 4.2021.9834 8.3681 1.7364 12.537.2295 1.2481.1308 2.003-.753 2.8556-4.0302 3.9716-8.0932 7.9101-11.959 12.0127-7.5351 8.0087-5.0126 21.499 4.8492 26.3251 6.3237 3.085 13.9243 1.9698 18.9048-2.9218 6.8134-6.6944 13.5957-13.4248 20.3134-20.249 6.879-6.959 6.9131-17.5948.1622-24.1592-.8516-.8535-1.834-1.6739-2.916-2.166-2.0635-.919-2.293-2.5596-2.0967-4.4317.2959-2.7246 1.376-5.0547 3.3095-6.9912.3926-.3926.8184-.8203 1.213-1.247 3.6357-3.6426 3.7353-3.7745 7.8622-.7872 11.171 8.042 15.7266 19.0684 14.087 32.6592-.9503 7.8105-4.5206 14.3418-10.1221 19.8242-6.9131 6.793-13.499 13.9492-20.6739 20.4483-19.33 17.5927-50.5527 7.3867-55.73-18.249-2.1943-10.9317.4268-20.9063 8.0601-29.1163 7.2407-7.8105 14.9068-15.2275 22.4092-22.7763.459-.4932 1.0166-.92 1.8672-1.6416z"/>
    <path d="M93.5156 158.8408c.2627-2.3945.5264-4.331.6563-6.334.2949-4.791-.13-9.5185-1.6367-14.08-.459-1.4122-.2315-2.3311.8486-3.3809 3.8672-3.7422 7.7021-7.5498 11.4346-11.455 6.3252-6.5636 6.3252-17.1007.0654-23.338-6.747-6.7607-17.004-6.8261-23.7832-.0966-6.7188 6.6289-13.3682 13.3242-19.9863 20.0537-5.9307 6.039-6.8155 14.9013-1.9659 21.661 1.376 1.9054 3.6036 3.1876 5.373 4.8272.6222.5899 1.2774 1.4122 1.4083 2.2315.4912 3.3799-.6553 6.334-2.9805 8.7969-1.1797 1.247-2.4902 2.3964-3.6699 3.707-.8525.9521-1.5723.9853-2.6211.3291-11.4668-6.7607-17.332-16.8047-17.3643-30.1309-.0322-8.7959 3.0137-16.4775 9.2393-22.7783 7.4375-7.5176 14.711-15.2959 22.542-22.3857 17.1016-15.458 45.1455-9.0918 53.5986 13.7197 4.8174 13.0313 2.0635 25.0117-7.4375 35.0879-7.0761 7.5156-14.5459 14.6719-21.8545 21.9912-.4912.4922-1.0146.8555-1.8662 1.5742z"/>
  </g>
</svg>
