<?xml version="1.0" encoding="utf-8"?>
<!-- Generator: Adobe Illustrator 16.0.0, SVG Export Plug-In . SVG Version: 6.00 Build 0)  -->
<!DOCTYPE svg PUBLIC "-//W3C//DTD SVG 1.1//EN" "http://www.w3.org/Graphics/SVG/1.1/DTD/svg11.dtd">
<svg version="1.1" id="Layer_1" xmlns="http://www.w3.org/2000/svg" xmlns:xlink="http://www.w3.org/1999/xlink" x="0px" y="0px"
	 width="64px" height="64px" viewBox="0 0 64 64" enable-background="new 0 0 64 64" xml:space="preserve">
<g id="CYCLISTE">
	<g>
		<path fill="#307555" d="M45.6435547,37.0683594c-0.5117188,0.4677734-0.9052734,0.7626953-1.2402344,1.1162109
			C40.7207031,41.8232422,37.078125,45.5,33.3574219,49.1220703c-0.5117188,0.5078125-1.359375,0.6650391-2.0078125,1.0751953
			c-0.4140625,0.2744141-0.8867188,0.6074219-1.1035156,1.0380859c-0.9052734,1.7802734-1.8701172,2.2109375-3.7412109,1.5058594
			c-0.8271484-0.3125-1.6337891-0.6455078-2.5400391-1.0175781c-0.1962891,0.5292969-0.3344727,0.9589844-0.4916992,1.3710938
			c-1.5161133,4.4208984-5.6313477,7.6494141-10.1015625,7.8837891c-5.0400391,0.2753906-9.0961914-2.1308594-11.3217773-6.6708984
			c-1.9296875-3.9345703-1.1611328-9.1005859,1.9892578-12.4648438c2.5195313-2.7001953,5.7099609-4.0322266,9.4511719-3.6777344
			c1.043457,0.0966797,1.5356445-0.2558594,1.8500977-1.1953125c0.8081055-2.4072266,1.8911133-4.4804688,5.277832-3.3261719
			c-0.0400391-0.1367188-0.0786133-0.2529297-0.1186523-0.3925781c-0.3149414-0.2324219-0.6293945-0.4482422-0.925293-0.6835938
			c-1.1025391-0.8417969-1.4770508-1.8789063-0.9453125-3.1894531c1.831543-4.4804688,3.6430664-8.9619141,5.5136719-13.4233398
			c0.7871094-1.8588867,2.0673828-2.0742188,3.9775391-1.6044922c3.7988281,0.9394531,5.984375,3.3457031,7.1855469,6.8476563
			c0.4335938,1.2729492,1.2207031,1.7612305,2.6201172,1.6635742c1.9091797-0.1362305,3.8388672-0.0581055,5.7490234-0.019043
			c1.5361328,0.019043,1.9296875,0.7827148,1.2792969,2.2104492c-0.15625,0.3339844-0.2353516,0.8222656-0.1171875,1.1542969
			c1.3183594,3.9150391,2.6787109,7.828125,4.0351563,11.7412109c0.0410156,0.1162109,0.1591797,0.2167969,0.2949219,0.3916016
			c4.0771484-0.7050781,7.7197266,0.2548828,10.5947266,3.3056641c3.1894531,3.3867188,4.0361328,7.4160156,2.4814453,11.7626953
			c-1.515625,4.2441406-4.6679688,6.8476563-9.1767578,7.4345703c-4.7636719,0.6074219-8.703125-1.1152344-11.3017578-5.1875
			c-3.5234375-5.5351563-1.9111328-12.4033203,3.6630859-15.7890625
			C46.8847656,38.9267578,45.9580078,38.1845703,45.6435547,37.0683594z M50.0537109,41.1376953
			c0.1396484,0.5078125,0.2753906,1.0361328,0.4541016,1.5664063c0.7080078,2.0732422,1.4970703,4.109375,2.0878906,6.203125
			c0.1367188,0.4863281-0.2373047,1.4072266-0.6708984,1.7021484c-0.7285156,0.4677734-1.4365234,0.0195313-1.7724609-0.8027344
			c-0.2949219-0.7246094-0.5507813-1.4873047-0.8056641-2.2324219c-0.6503906-1.8779297-1.3203125-3.7353516-1.9707031-5.6347656
			c-4.09375,1.9960938-5.8466797,7.0644531-3.9765625,11.1738281c2.0673828,4.5,7.0888672,6.3398438,11.6962891,4.3037109
			c4.3310547-1.9160156,6.3388672-7.0039063,4.4697266-11.3681641
			C57.9492188,42.2919922,53.3027344,39.8457031,50.0537109,41.1376953z M21.1293945,50.1777344
			c-2.6181641,0-5.2768555,0-7.9150391,0c-3.3671875,0-3.6621094-0.4492188-2.2641602-3.5224609
			c0.8461914-1.8779297,1.6928711-3.7578125,2.5595703-5.6738281c-2.9140625-0.6455078-6.8325195,1.2724609-8.4863281,4.0107422
			c-1.96875,3.25-1.6342773,7.3378906,0.8657227,10.2539063c2.4223633,2.8574219,6.3212891,3.7763672,9.9438477,2.40625
			C18.7670898,56.5361328,21.4248047,53.0751953,21.1293945,50.1777344z M32.3339844,21.453125
			c-0.8867188,2.2109375-1.6347656,4.109375-2.4423828,5.9882813c-0.3144531,0.7441406-0.1171875,1.0966797,0.6103516,1.3681641
			c1.1816406,0.4511719,2.3232422,0.9785156,3.4863281,1.46875c1.3173828,0.546875,2.578125,1.1152344,3.0898438,2.6220703
			c0.0791016,0.2148438,0.3935547,0.46875,0.5908203,0.4902344c2.1660156,0.0380859,4.3525391,0.0185547,6.734375,0.0185547
			c-0.8857422-2.6210938-1.6728516-4.9902344-2.5400391-7.3378906c-0.0966797-0.2939453-0.7089844-0.5292969-1.0839844-0.5478516
			c-1.4560547-0.0595703-2.8925781-0.0595703-4.3496094-0.0195313c-1.3603516,0.0380859-2.34375-0.4121094-2.8769531-1.7226563
			C33.2773438,23.0576172,32.8457031,22.3920898,32.3339844,21.453125z M34.3027344,34.9345703
			c0.2558594-0.6435547,0.4707031-1.3300781-0.4736328-1.7412109c-3.5039063-1.5253906-7.0087891-3.0712891-10.4941406-4.5996094
			c-0.7089844-0.3115234-1.2407227-0.4677734-1.6342773,0.5292969c-0.3740234,0.9589844-0.0786133,1.3300781,0.7485352,1.6826172
			c2.6572266,1.1367188,5.2958984,2.3291016,7.9150391,3.5224609c1.4375,0.6455078,1.6542969,1.2138672,1.0634766,2.6416016
			c-0.6298828,1.5068359-1.2998047,2.9755859-1.9296875,4.4814453c-1.1425781,2.6621094-2.2841797,5.3408203-3.484375,8.1015625
			c0.5898438,0.2744141,1.0429688,0.4882813,1.6923828,0.8007813 M23.1381836,25.6210938
			c1.3979492,0.6064453,2.6186523,1.1337891,3.9575195,1.7021484c1.2207031-3.0917969,2.3828125-6.046875,3.5839844-9.0595703
			c-1.1621094-0.4692383-2.1464844-0.9199219-3.1699219-1.2329102c-0.2958984-0.0981445-0.9453125,0.1557617-1.0439453,0.4111328
			C25.3232422,20.0830078,24.2797852,22.7446289,23.1381836,25.6210938z M42.4150391,36.1289063
			c-1.8310547,0-3.4267578-0.0185547-5.0019531,0.0195313c-0.3144531,0-0.7871094,0.2353516-0.8867188,0.46875
			c-1.2978516,2.9550781-2.5380859,5.9492188-3.8193359,8.9433594
			C35.9160156,42.4492188,39.0478516,39.3964844,42.4150391,36.1289063z M13.6083984,47.4003906
			c2.6181641,0,4.9418945,0,7.4033203,0c-0.6694336-2.7587891-2.3232422-4.4814453-4.7851563-5.7744141
			C15.340332,43.5458984,14.5136719,45.3847656,13.6083984,47.4003906z M24.1030273,47.1074219
			c0.4331055-1.0195313,0.925293-1.9970703,1.2993164-3.0341797c0.0986328-0.234375-0.0195313-0.6855469-0.1972656-0.8613281
			c-2.1845703-2.1513672-4.3901367-4.265625-6.7529297-6.5351563c-0.4140625,0.9199219-0.7285156,1.6230469-1.0834961,2.4072266
			C20.7163086,40.8642578,22.9414063,43.4277344,24.1030273,47.1074219z M22.8037109,36.1484375
			c1.2006836,1.3681641,2.5791016,2.9355469,4.0556641,4.6181641c0.5117188-1.1943359,0.9443359-2.2705078,1.4375-3.3076172
			c0.453125-0.9580078,0.0585938-1.3105469-0.8466797-1.3105469C25.7177734,36.1289063,24.0043945,36.1484375,22.8037109,36.1484375
			z"/>
		<path fill="#307555" d="M25.9736328,8.7333984c-0.0195313-3.1694336,2.5400391-5.7719727,5.6503906-5.7329102
			c3.1308594,0.0400391,5.7304688,2.6220703,5.7695313,5.6743164c0.0195313,3.0727539-2.4804688,5.6362305-5.5527344,5.6953125
			C28.5732422,14.4477539,25.9931641,11.9628906,25.9736328,8.7333984z M31.5458984,11.7084961
			c1.6142578,0.097168,2.9726563-1.1157227,3.1113281-2.7392578c0.1376953-1.6044922-1.1630859-3.0722656-2.8359375-3.1904297
			C30.1875,5.6430664,28.75,6.9145508,28.6318359,8.6166992C28.5527344,10.2207031,29.8525391,11.6103516,31.5458984,11.7084961z"/>
	</g>
</g>
<g>
</g>
<g>
</g>
<g>
</g>
<g>
</g>
<g>
</g>
<g>
</g>
</svg>
